REM MD5 2a1da97998ad4b35bff9eae9acfa0dd5
FILE "SuperLite 1500 Series - Pinball - Golden Logres (Japan).bin" BINARY
  TRACK 01 MODE2/2352
    INDEX 01 00:00:00
  TRACK 02 AUDIO
    INDEX 00 02:14:67
    INDEX 01 02:16:67
  TRACK 03 AUDIO
    INDEX 00 02:21:67
    INDEX 01 02:23:67
  TRACK 04 AUDIO
    INDEX 00 02:28:67
    INDEX 01 02:30:67
  TRACK 05 AUDIO
    INDEX 00 02:35:68
    INDEX 01 02:37:68
  TRACK 06 AUDIO
    INDEX 00 02:50:24
    INDEX 01 02:52:24
  TRACK 07 AUDIO
    INDEX 00 02:59:34
    INDEX 01 03:01:34
  TRACK 08 AUDIO
    INDEX 00 03:08:69
    INDEX 01 03:10:69
  TRACK 09 AUDIO
    INDEX 00 03:16:23
    INDEX 01 03:18:23
  TRACK 10 AUDIO
    INDEX 00 03:25:11
    INDEX 01 03:27:11
  TRACK 11 AUDIO
    INDEX 00 03:37:24
    INDEX 01 03:39:24
  TRACK 12 AUDIO
    INDEX 00 03:44:25
    INDEX 01 03:46:25
  TRACK 13 AUDIO
    INDEX 00 03:51:25
    INDEX 01 03:53:25
  TRACK 14 AUDIO
    INDEX 00 04:01:04
    INDEX 01 04:03:04
  TRACK 15 AUDIO
    INDEX 00 04:09:49
    INDEX 01 04:11:49
  TRACK 16 AUDIO
    INDEX 00 04:25:44
    INDEX 01 04:27:44
  TRACK 17 AUDIO
    INDEX 00 04:34:47
    INDEX 01 04:36:47
  TRACK 18 AUDIO
    INDEX 00 04:41:47
    INDEX 01 04:43:47
  TRACK 19 AUDIO
    INDEX 00 04:48:48
    INDEX 01 04:50:48
  TRACK 20 AUDIO
    INDEX 00 04:55:49
    INDEX 01 04:57:49
  TRACK 21 AUDIO
    INDEX 00 05:02:50
    INDEX 01 05:04:50
  TRACK 22 AUDIO
    INDEX 00 05:09:51
    INDEX 01 05:11:51
  TRACK 23 AUDIO
    INDEX 00 05:16:51
    INDEX 01 05:18:51
  TRACK 24 AUDIO
    INDEX 00 05:23:52
    INDEX 01 05:25:52
  TRACK 25 AUDIO
    INDEX 00 05:30:53
    INDEX 01 05:32:53
  TRACK 26 AUDIO
    INDEX 00 05:37:53
    INDEX 01 05:39:53
  TRACK 27 AUDIO
    INDEX 00 05:50:44
    INDEX 01 05:52:44
  TRACK 28 AUDIO
    INDEX 00 05:59:38
    INDEX 01 06:01:38
  TRACK 29 AUDIO
    INDEX 00 06:12:53
    INDEX 01 06:14:53
  TRACK 30 AUDIO
    INDEX 00 06:19:53
    INDEX 01 06:21:53
  TRACK 31 AUDIO
    INDEX 00 06:30:02
    INDEX 01 06:32:02
  TRACK 32 AUDIO
    INDEX 00 06:37:73
    INDEX 01 06:39:73
  TRACK 33 AUDIO
    INDEX 00 06:48:51
    INDEX 01 06:50:51
  TRACK 34 AUDIO
    INDEX 00 06:55:51
    INDEX 01 06:57:51
  TRACK 35 AUDIO
    INDEX 00 07:02:51
    INDEX 01 07:04:51
  TRACK 36 AUDIO
    INDEX 00 07:09:51
    INDEX 01 07:11:51
  TRACK 37 AUDIO
    INDEX 00 07:16:52
    INDEX 01 07:18:52
  TRACK 38 AUDIO
    INDEX 00 07:23:52
    INDEX 01 07:25:52
  TRACK 39 AUDIO
    INDEX 00 07:30:52
    INDEX 01 07:32:52
  TRACK 40 AUDIO
    INDEX 00 07:37:52
    INDEX 01 07:39:52
  TRACK 41 AUDIO
    INDEX 00 07:44:53
    INDEX 01 07:46:53
  TRACK 42 AUDIO
    INDEX 00 07:51:53
    INDEX 01 07:53:53
  TRACK 43 AUDIO
    INDEX 00 07:58:54
    INDEX 01 08:00:54
  TRACK 44 AUDIO
    INDEX 00 08:06:64
    INDEX 01 08:08:64
  TRACK 45 AUDIO
    INDEX 00 08:13:64
    INDEX 01 08:15:64
  TRACK 46 AUDIO
    INDEX 00 08:23:41
    INDEX 01 08:25:41
  TRACK 47 AUDIO
    INDEX 00 08:30:41
    INDEX 01 08:32:41
  TRACK 48 AUDIO
    INDEX 00 08:37:42
    INDEX 01 08:39:42
  TRACK 49 AUDIO
    INDEX 00 08:44:43
    INDEX 01 08:46:43
  TRACK 50 AUDIO
    INDEX 00 23:07:26
    INDEX 01 23:09:26
  TRACK 51 AUDIO
    INDEX 00 37:30:35
    INDEX 01 37:32:35
  TRACK 52 AUDIO
    INDEX 00 49:15:38
    INDEX 01 49:17:38
  TRACK 53 AUDIO
    INDEX 00 63:38:21
    INDEX 01 63:40:21
REM LEADOUT 66:40:21
